<svg version="1.1" id="Layer_1" xmlns="http://www.w3.org/2000/svg" xmlns:xlink="http://www.w3.org/1999/xlink" x="0px" y="0px"
	 width="100%" viewBox="0 0 448 432" enable-background="new 0 0 448 432" xml:space="preserve">
<path fill="#000000" opacity="1.000000" stroke="none" 
	d="
M449.000000,82.531342 
	C445.283234,86.913658 443.911102,92.265045 440.625854,96.481865 
	C432.610809,106.769684 422.779419,115.306519 413.690857,124.538155 
	C387.999847,150.633575 361.966187,176.391632 336.079407,202.294479 
	C315.603119,222.783524 295.155548,243.301361 274.673187,263.784332 
	C263.728394,274.729492 252.756805,285.648102 241.753113,296.533997 
	C238.861465,299.394684 235.366928,301.204926 231.402786,302.296082 
	C202.999222,310.114380 174.617996,318.013763 146.227310,325.878937 
	C143.174759,326.724579 140.109070,327.312225 136.886749,327.258942 
	C128.167999,327.114746 123.418411,321.426483 125.280128,312.774078 
	C126.433380,307.414276 127.987961,302.137207 129.459778,296.850128 
	C136.506668,271.536285 143.667419,246.253662 150.567963,220.900131 
	C151.599808,217.108994 153.701843,214.399078 156.310974,211.789825 
	C200.831573,167.267746 245.331787,122.725273 289.862976,78.213768 
	C310.242523,57.843224 330.798462,37.647427 351.027863,17.129259 
	C358.465485,9.585451 367.209534,5.049152 377.398773,2.914359 
	C378.554352,2.672237 379.694305,2.479095 380.763000,1.269522 
	C384.692902,1.000000 388.385834,1.000000 392.786316,1.266441 
	C394.629242,2.730947 396.227692,2.562795 397.633301,2.998681 
	C401.733978,4.270303 406.217072,4.379947 409.908600,6.902384 
	C425.425201,17.505022 439.603912,29.352621 447.393982,47.162006 
	C447.704926,47.872822 448.454712,48.391689 449.000000,49.000000 
	C449.000000,60.020893 449.000000,71.041786 449.000000,82.531342 
M184.205124,218.668472 
	C181.562851,221.163193 182.604874,223.261017 184.769760,225.437820 
	C198.973511,239.719788 213.172409,254.007080 227.281296,268.382538 
	C230.220413,271.377167 232.162048,270.294128 234.681427,267.769928 
	C285.388611,216.965424 336.129822,166.194778 386.986023,115.539635 
	C390.315033,112.223755 389.588074,110.268692 386.710510,107.423874 
	C373.326111,94.191742 360.091095,80.808586 346.776062,67.506073 
	C340.930969,61.666496 340.884491,61.757404 335.038757,67.644531 
	C305.246826,97.647484 275.465118,127.660881 245.590469,157.581375 
	C225.358017,177.844864 204.977905,197.960907 184.205124,218.668472 
M412.006104,90.459908 
	C414.460968,87.977753 416.941254,85.520180 419.366241,83.009178 
	C429.686066,72.323189 429.598907,57.511726 419.134705,46.869408 
	C414.822601,42.483959 410.470337,38.137127 406.086670,33.823185 
	C396.618530,24.505632 384.059082,23.337292 372.924988,30.557356 
	C368.528778,33.408138 365.476318,37.643288 361.595123,41.005608 
	C358.761597,43.460316 359.099121,45.512062 361.634979,48.027027 
	C376.035645,62.308929 390.395172,76.633492 404.635376,91.074974 
	C407.277008,93.753929 409.274719,93.803238 412.006104,90.459908 
M176.089706,292.496002 
	C184.421921,290.191589 192.776703,287.964844 201.078293,285.554962 
	C206.450348,283.995483 206.843048,282.556305 202.972946,278.623962 
	C193.163513,268.656830 183.269730,258.772552 173.389603,248.875229 
	C172.362198,247.846039 171.457825,246.503403 168.794083,246.810135 
	C163.756760,263.133667 159.140411,279.896088 154.805038,297.828339 
	C162.679214,296.500793 168.996094,294.623413 176.089706,292.496002 
z"/>
<path fill="#000000" opacity="1.000000" stroke="none" 
	d="
M357.468658,433.000000 
	C360.521301,432.105011 363.193115,430.946655 363.445282,426.304657 
	C363.634552,422.821350 367.371643,422.270081 370.425934,421.880554 
	C379.357178,420.741547 387.442291,417.996490 394.088165,411.389740 
	C400.918976,404.599060 403.938843,396.449036 403.969452,387.127655 
	C404.073364,355.484467 404.003052,323.840759 404.014130,292.197235 
	C404.017242,283.274048 408.889069,278.283264 417.007080,278.818817 
	C422.760315,279.198364 427.401062,283.745728 427.406769,289.576508 
	C427.441071,324.717133 427.659882,359.862152 427.153870,394.996124 
	C426.984497,406.754608 422.077118,417.268494 413.831482,425.953308 
	C412.002625,427.879547 409.970001,429.656219 409.063385,432.656097 
	C391.979095,433.000000 374.958221,433.000000 357.468658,433.000000 
z"/>
<path fill="#000000" opacity="1.000000" stroke="none" 
	d="
M25.468658,433.000000 
	C20.754480,427.880920 15.969342,423.187744 12.862930,417.180756 
	C6.598623,405.067291 3.276114,392.398499 5.848757,378.723724 
	C6.863896,373.327820 10.935530,369.981964 15.139526,367.024261 
	C17.525457,365.345673 19.928705,366.573120 21.141026,368.729950 
	C24.683071,375.031616 29.634604,380.869598 29.214378,388.732422 
	C28.502071,402.060455 41.027081,417.830414 56.552521,420.749207 
	C64.185051,422.184204 71.834427,421.336548 79.459167,421.867950 
	C84.824478,422.241882 89.857025,422.954193 91.444305,429.404449 
	C91.898964,431.252075 93.572540,431.769135 95.366631,431.920074 
	C97.346825,432.086639 99.315071,432.395264 101.644264,432.820984 
	C76.645775,433.000000 51.291542,433.000000 25.468658,433.000000 
z"/>
<path fill="#000000" opacity="1.000000" stroke="none" 
	d="
M83.000000,68.990082 
	C72.564575,69.613365 62.518028,67.537460 52.667248,70.231453 
	C39.463387,73.842430 29.327473,86.912704 29.291101,100.507469 
	C29.181458,141.490204 28.669571,182.479248 29.258766,223.452255 
	C29.451855,236.879639 24.323357,248.415390 20.485062,260.523132 
	C19.168482,264.676239 15.418093,264.998901 13.034318,261.192261 
	C9.215785,255.094437 5.698754,249.209641 5.546905,241.176758 
	C4.665195,194.534241 4.608522,147.886169 5.052721,101.252609 
	C5.360752,68.914474 29.962534,44.885693 61.683693,44.983562 
	C93.836891,45.082767 125.990845,44.907864 158.144455,44.915096 
	C167.761200,44.917259 171.449677,48.822731 171.183029,58.365517 
	C171.046249,63.260750 167.680908,67.336716 162.417923,68.353828 
	C159.504501,68.916878 156.458786,68.949059 153.472153,68.955193 
	C130.148178,69.003059 106.824066,68.986496 83.000000,68.990082 
z"/>
</svg>